<svg viewBox="0 0 97.4 135" xmlns="http://www.w3.org/2000/svg"><path d="m55.51 3 38.64 35.7V132H3.25V3zm1.3-3H0v135h97.4V37.5z"/><path d="M20.2 87.08V47.93h5.75q3.28 0 5.47 1.44a9 9 0 0 1 3.3 4.07q1.08 2.66 1.08 6.21t-1.13 6.14a9 9 0 0 1-3.34 4.02 10.4 10.4 0 0 1-5.37 1.59v15.7zm5.75-21.53q1.53 0 2.4-.59.88-.6 1.27-1.9.38-1.3.38-3.37t-.38-3.37a3.4 3.4 0 0 0-1.28-1.92 4.4 4.4 0 0 0-2.4-.6zM40 87.08V47.93h5.39l5.32 20.4.5 1.8h.3v-22.2h5.28v39.15h-4.85l-5.86-20.4-.46-1.8h-.32v22.18zm28.61.43a6.2 6.2 0 0 1-3.86-1.13 6.5 6.5 0 0 1-2.19-3.03 12 12 0 0 1-.7-4.32V55.97q0-2.37.93-4.3a7.3 7.3 0 0 1 6.73-4.18q1.77.01 3.2.66t2.43 1.82q1.01 1.19 1.51 2.71.54 1.54.54 3.29v6.02h-5.77v-6.02q0-1.17-.42-2.02-.44-.85-1.48-.85-1.05 0-1.48.88a4.4 4.4 0 0 0-.44 1.99v23.55q0 1.14.44 2.01.45.86 1.48.86t1.48-.86q.45-.89.43-2.01v-6.55h-2.3v-5.4h8.06v19.52h-3.4l-.72-2.13q-.74 1.19-1.9 1.88-1.14.67-2.57.68"/><path d="M56.81 37.5H97.4L56.8 0z" fill="#ad0000"/></svg>