<svg viewBox="0 0 97.4 135" xmlns="http://www.w3.org/2000/svg" fill="var(--primary-color)"><path d="M29 87.5q-2.5 0-4-.8a6 6 0 0 1-2.5-2.3q-.9-1.5-1.2-3.6-.4-2.1-.4-4.7l5.6-.5.5 4.6q.2.8.7 1.5.5.5 1.3.5 1.2 0 1.8-1.2a7 7 0 0 0 .5-2.8 8 8 0 0 0-.9-3.5l-2-3.4a60 60 0 0 1-6.1-9.8 13 13 0 0 1-.4-8.5q.4-1.5 1.5-2.9a7 7 0 0 1 5.5-2.6q2.2 0 3.8.7 1.5.8 2.4 2.2 1 1.3 1.4 3.3.5 1.8.5 4.2l-5.7.5-.4-3.8q-.3-.8-.7-1.3-.5-.5-1.2-.5-1 0-1.5 1-.5.8-.5 2.6 0 2.3 1.2 4.3l3.3 4.9q2.2 3 4 6 1.5 2.7 1.5 6a16 16 0 0 1-.5 4 9 9 0 0 1-1.4 3 6 6 0 0 1-2.5 2.2q-1.5.7-3.6.7m16.7-.5-6-39h5.7l2.8 23 .3 3.8h.3L49 71l2.9-23h5.6l-6 39zm22.3.5q-2.5 0-4-1.1-1.4-1.2-2.1-3-.7-2-.7-4.4V56q0-2.4 1-4.3a7 7 0 0 1 6.7-4.2 8 8 0 0 1 5.6 2.5q1 1.2 1.5 2.7t.5 3.3v6h-5.7v-6q0-1.2-.4-2-.5-1-1.5-1t-1.5 1a4 4 0 0 0-.5 2v23.5q0 1.2.5 2t1.5.9q1 0 1.5-.9t.4-2V73h-2.3v-5.4h8V87h-3.4l-.7-2.2a6 6 0 0 1-1.9 2 5 5 0 0 1-2.5.6"/><path d="M55.5 3 94 38.7V132H3.2V3zm1.3-3H0v135h97.4V37.5z"/><path d="M56.8 37.5h40.6L56.8 0z" fill="#AD0000"/></svg>