<svg width="100%" height="100%" viewBox="0 0 20 20.3" version="1.1" xmlns="http://www.w3.org/2000/svg">
    <path d="M0.351,12.869c-0.234,-0.882 -0.351,-1.788 -0.351,-2.719c0,-0.931 0.117,-1.836 0.351,-2.716c0.233,-0.88 0.561,-1.692 0.982,-2.438c0.421,-0.745 0.936,-1.429 1.545,-2.051c0.609,-0.622 1.278,-1.15 2.008,-1.584c0.73,-0.435 1.531,-0.772 2.405,-1.013c0.873,-0.24 1.775,-0.36 2.706,-0.36c0.93,-0 1.832,0.119 2.706,0.357c0.873,0.238 1.676,0.574 2.408,1.006c0.732,0.432 1.402,0.958 2.011,1.578c0.609,0.619 1.123,1.302 1.542,2.047c0.891,1.566 1.336,3.291 1.336,5.174c0,2.845 -0.959,5.246 -2.878,7.205c-1.231,1.261 -2.704,2.128 -4.419,2.6c-0.874,0.238 -1.776,0.357 -2.706,0.357c-0.931,0 -1.833,-0.12 -2.706,-0.36c-0.874,-0.241 -1.675,-0.578 -2.405,-1.013c-0.73,-0.434 -1.399,-0.962 -2.008,-1.584c-0.609,-0.622 -1.124,-1.306 -1.545,-2.051c-0.421,-0.746 -0.749,-1.557 -0.982,-2.435Zm1.045,-5.14c-0.207,0.785 -0.311,1.592 -0.311,2.421c0,0.829 0.104,1.637 0.311,2.425c0.207,0.787 0.499,1.515 0.877,2.183c0.377,0.668 0.836,1.283 1.379,1.846c0.543,0.562 1.139,1.04 1.79,1.432c0.65,0.393 1.365,0.698 2.143,0.917c0.779,0.218 1.582,0.327 2.412,0.327c0.829,0 1.633,-0.109 2.411,-0.327c0.779,-0.219 1.493,-0.524 2.144,-0.917c0.65,-0.392 1.248,-0.87 1.793,-1.432c0.544,-0.563 1.005,-1.178 1.382,-1.846c0.378,-0.668 0.67,-1.396 0.877,-2.183c0.207,-0.788 0.311,-1.596 0.311,-2.425c-0,-0.829 -0.104,-1.637 -0.311,-2.425c-0.207,-0.787 -0.499,-1.515 -0.877,-2.183c-0.377,-0.668 -0.838,-1.283 -1.382,-1.846c-0.545,-0.562 -1.143,-1.04 -1.793,-1.432c-0.651,-0.393 -1.365,-0.698 -2.144,-0.917c-0.778,-0.218 -1.582,-0.327 -2.411,-0.327c-0.83,-0 -1.633,0.109 -2.412,0.327c-0.778,0.219 -1.493,0.524 -2.143,0.917c-0.651,0.392 -1.247,0.87 -1.79,1.432c-0.543,0.563 -1.002,1.178 -1.379,1.846c-0.378,0.668 -0.67,1.397 -0.877,2.187Zm12.451,0.33l0.08,-1.568c-0,-0.141 -0.187,-0.358 -0.559,-0.651c-0.373,-0.294 -0.714,-0.531 -1.023,-0.712c-0.732,-0.427 -1.509,-0.641 -2.332,-0.641c-0.822,-0 -1.556,0.231 -2.2,0.694c-0.644,0.464 -1.145,1.105 -1.505,1.926c-0.359,0.82 -0.539,1.724 -0.539,2.712c0,0.988 0.212,1.884 0.635,2.686c0.424,0.803 0.999,1.437 1.727,1.902c0.728,0.466 1.429,0.698 2.104,0.698c0.675,0 1.226,-0.046 1.654,-0.139c0.428,-0.092 0.777,-0.205 1.048,-0.337c0.272,-0.132 0.507,-0.265 0.705,-0.397c0.199,-0.132 0.356,-0.245 0.473,-0.337c0.117,-0.093 0.197,-0.139 0.242,-0.139c0.044,-0 0.119,0.086 0.225,0.258c0.105,0.172 0.158,0.286 0.158,0.344c0,0.057 -0.063,0.15 -0.188,0.278c-0.126,0.128 -0.324,0.275 -0.596,0.443c-0.271,0.167 -0.585,0.324 -0.942,0.47c-0.861,0.357 -1.737,0.536 -2.63,0.536c-0.893,-0 -1.64,-0.081 -2.24,-0.242c-0.6,-0.161 -1.161,-0.41 -1.684,-0.748c-0.522,-0.337 -0.975,-0.748 -1.359,-1.233c-0.834,-1.046 -1.251,-2.391 -1.251,-4.036c0,-1.826 0.607,-3.297 1.82,-4.413c1.191,-1.089 2.679,-1.634 4.466,-1.634c0.714,-0 1.271,0.076 1.67,0.228c0.399,0.152 0.664,0.258 0.794,0.318c0.13,0.059 0.269,0.133 0.417,0.221c0.148,0.089 0.256,0.157 0.324,0.205c0.068,0.049 0.154,0.11 0.258,0.182c0.104,0.073 0.184,0.132 0.242,0.176c0.057,0.044 0.086,0.017 0.086,-0.08l-0,-0.516c-0,-0.163 0.109,-0.245 0.327,-0.245c0.218,0 0.35,0.003 0.394,0.007c0.114,0.018 0.172,0.097 0.172,0.238l-0.053,3.441c-0,0.216 -0.153,0.324 -0.46,0.324c-0.307,-0 -0.46,-0.073 -0.46,-0.219Z" style="fill-rule:nonzero;"/>
</svg>