<svg viewBox="0 0 100.1 52.5" xmlns="http://www.w3.org/2000/svg"><path fill="#FBFAF7" d="M0 0h100v52.5H0z"/><g fill="#161718"><path d="M67.407 43.299a7 7 0 0 0 .217-.241q.107-.121.2-.255a.1.1 0 0 1 .044-.039.1.1 0 0 1 .054-.007.5.5 0 0 0 .105.007q.052 0 .104.014a.2.2 0 0 1 .075.038.13.13 0 0 1 .039.071l.01.031.009.033a.6.6 0 0 0 .045.131q.03.062.066.122a1 1 0 0 1 .048.084l.02-.017a.04.04 0 0 0 .013-.013l.204-.309.117-.175.115-.177a.1.1 0 0 1 .034-.039.06.06 0 0 1 .043-.015q.013 0 .031.005l.038.01a.4.4 0 0 1 .068.025q.07.03.031.087a2 2 0 0 0-.077.129 1 1 0 0 1-.084.126 3 3 0 0 0-.105.147l-.101.151-.026.036-.027.037-.106.147-.026.036-.026.037a.13.13 0 0 1-.098.055l-.018.001-.017.003-.108.008q-.047.001-.076-.045a3 3 0 0 1-.108-.208l-.098-.213a.1.1 0 0 0-.027-.037q-.016-.014-.046-.011-.079.074-.147.17l-.04.052-.042.052-.144.175a.1.1 0 0 1-.051.038.2.2 0 0 1-.06.006l-.084-.007-.086-.004a.12.12 0 0 1-.112-.073l-.033-.073-.031-.073-.01-.027-.01-.028-.11-.277-.11-.278q-.022-.053-.007-.082.016-.028.083-.025l.025.004.025.002q.05 0 .078.027a.2.2 0 0 1 .046.068l.015.038.015.038.06.152q.029.078.068.151l.051.099zm2.126-.398v.07q.013.013.025.011l.024-.001a1.6 1.6 0 0 1 .308-.007h.015q.056.007.074.026.018.018.012.074l-.005.045-.004.047q-.009.038-.042.044a.4.4 0 0 1-.074.011l-.07.006-.07.006-.141.009-.011.002-.014.004a.2.2 0 0 0-.016.064l.003.069.023.006.023.001.112-.004.113-.006.091-.008a1 1 0 0 0 .09-.016l.064-.007.066-.005q.039-.002.078-.001l.079.001.061-.004a.2.2 0 0 0 .062-.014q.029-.01.046.005.018.017.014.048l-.004.07.003.071q.005.054-.051.063l-.016.002-.016.001-.192.007-.191.006h-.024l-.025-.002-.05-.004-.048-.002a1 1 0 0 0-.137.008l-.136.014-.073.006a.6.6 0 0 1-.136.001l-.063-.008q-.038-.007-.049-.019t-.015-.051l-.006-.058-.005-.058-.011-.277-.009-.277a1 1 0 0 1 .005-.099q.008-.051.011-.099a.1.1 0 0 1 .023-.057.07.07 0 0 1 .054-.026l.025-.004.024-.004.141-.001h.141l.075.003.218.006.221.007.053.004.053.008a.1.1 0 0 1 .046.024q.015.018.012.044a1 1 0 0 1-.028.156.03.03 0 0 1-.018.025.1.1 0 0 1-.033.006l-.028-.003-.029-.005a.45.45 0 0 0-.188-.001.6.6 0 0 1-.141.019l-.14.003a.7.7 0 0 0-.179.025m1.229.236-.008.198-.009.23q-.001.05-.021.064a.13.13 0 0 1-.055.023l-.034.006q-.017.002-.034.001a.05.05 0 0 1-.037-.015.1.1 0 0 1-.019-.038l-.003-.046v-.046l-.001-.091q0-.189-.005-.376-.003-.111.005-.218.009-.109.022-.217.003-.033.014-.043.012-.011.043-.014l.038-.004.038.002q.05.005.057.054l.002.022.001.024a2 2 0 0 1 .007.227l-.001.123zm1.1.042.075.172.099.227q.008.028-.005.049-.012.021-.041.024l-.081.004h-.082a.05.05 0 0 1-.033-.01.1.1 0 0 1-.022-.026l-.023-.048-.022-.05-.064-.151-.066-.152a.3.3 0 0 0-.065-.005l-.062.007-.062.009q-.03.004-.063.004-.06-.002-.121 0l-.127.004-.011.034a.1.1 0 0 0-.005.033l-.005.127-.003.128q0 .056-.021.077-.022.023-.08.024l-.042-.002-.038-.01a.06.06 0 0 1-.031-.022.07.07 0 0 1-.016-.039l-.01-.068-.004-.068-.002-.064v-.585l.002-.04a.2.2 0 0 0 .001-.04.1.1 0 0 1 .017-.067q.02-.024.08-.032l.226-.03a4 4 0 0 1 .227-.027 1 1 0 0 1 .217.002q.108.013.215.04.033.01.068.017l.069.018q.052.017.097.035.045.017.08.044a.2.2 0 0 1 .059.065q.025.038.039.099a.17.17 0 0 1-.005.102.15.15 0 0 1-.072.073 1 1 0 0 1-.141.065 3 3 0 0 1-.146.053m.03-.276a.14.14 0 0 0-.065-.041.2.2 0 0 0-.065-.007q-.09.006-.177 0a3 3 0 0 1-.178-.014 1 1 0 0 0-.105-.005h-.107a.2.2 0 0 0-.05.006.2.2 0 0 0-.05.023v.022l-.001.023.003.024.014.024.059-.003.06-.004.111-.009.111-.009q.064-.003.127-.002l.128-.001.087-.005a.5.5 0 0 0 .098-.022m.423.247.001-.158-.001-.159-.003-.072a.3.3 0 0 0-.011-.072q-.018-.06.05-.074.073-.016.147-.025a1 1 0 0 1 .15-.005.5.5 0 0 0 .096-.003 3 3 0 0 1 .211-.015l.114-.003q.082 0 .172.01a.7.7 0 0 1 .167.042.4.4 0 0 1 .134.092.3.3 0 0 1 .072.159.5.5 0 0 1-.008.185.64.64 0 0 1-.281.406 1 1 0 0 1-.223.109 1.3 1.3 0 0 1-.322.064l-.072.01-.056.005-.057.005a.3.3 0 0 1-.112-.007q-.054-.014-.11-.031-.035-.012-.045-.028-.012-.017-.012-.056l.001-.068.001-.069-.002-.121-.003-.121zm.255.263a.2.2 0 0 0 .076-.009l.113-.034.113-.03a.7.7 0 0 0 .145-.053q.068-.035.134-.075l.045-.028a.2.2 0 0 1 .047-.024.2.2 0 0 0 .061-.038.2.2 0 0 0 .035-.055.2.2 0 0 0 .015-.066l.003-.069q-.001-.065-.031-.096a.17.17 0 0 0-.089-.042 1 1 0 0 0-.136-.019 3 3 0 0 0-.259-.016h-.259l-.019.003-.023.006.008.3.009.312.002.016q0 .003.004.007zm2.336-.459a.3.3 0 0 1 .119.044 1 1 0 0 1 .097.073.2.2 0 0 1 .059.089q.018.052.018.106t-.015.103a.2.2 0 0 1-.042.081.4.4 0 0 1-.08.073.24.24 0 0 1-.099.042 1 1 0 0 1-.106.019l-.107.016-.103.015q-.053.008-.103.018a1 1 0 0 1-.194.023l-.194.003h-.016l-.015-.002q-.056-.011-.042-.07l.004-.017.002-.019.002-.212.001-.214v-.221l-.001-.221v-.045a.1.1 0 0 1 .008-.032q.007-.01.03-.013l.095-.017a1 1 0 0 1 .096-.01q.049 0 .098-.004l.097-.006.048-.003h.049l.112.005q.057.002.113.009a.6.6 0 0 1 .13.032.16.16 0 0 1 .065.046q.027.03.036.066a.2.2 0 0 1 .002.075.18.18 0 0 1-.074.106l-.042.032-.024.015zm-.605-.076.016.002.008-.001.387-.068a.2.2 0 0 0 .04-.013.2.2 0 0 0 .036-.018q.015-.01.017-.021 0-.013-.01-.018l-.022-.007a1 1 0 0 0-.173-.029q-.088-.008-.177-.013l-.085-.001-.025.003-.024.006zm.697.397-.012-.039q-.007-.017-.015-.026l-.019-.019-.028-.016-.027-.011-.029-.009-.154-.027a.6.6 0 0 0-.156-.008.3.3 0 0 1-.05.002l-.048.003-.073.008a.2.2 0 0 0-.073.02 1 1 0 0 0-.015.161l-.004.164a.4.4 0 0 0 .116-.002q.1-.012.202-.034l.2-.043a.3.3 0 0 0 .185-.124m1.009.399-.145-.001a2 2 0 0 0-.146.001.4.4 0 0 1-.173-.032.6.6 0 0 1-.146-.097.3.3 0 0 1-.058-.08.3.3 0 0 1-.03-.095 1 1 0 0 1-.018-.189l-.001-.191a2 2 0 0 0-.024-.287q-.007-.036.005-.053.01-.017.046-.027a.2.2 0 0 1 .118.003q.03.01.062.03a.1.1 0 0 1 .029.028l.019.035.027.092q.01.046.009.095l-.003.113-.005.112-.003.063a.5.5 0 0 0 .025.17q.01.038.053.043l.144.018.144.017a.8.8 0 0 0 .23-.008 4 4 0 0 0 .225-.046q.024-.006.047-.016a.2.2 0 0 0 .077-.06.1.1 0 0 0 .017-.048q.008-.06.019-.12a1 1 0 0 0 .016-.121q.003-.065.011-.126l.017-.127q.006-.037.024-.052.016-.016.054-.019h.044a.1.1 0 0 1 .063.023q.02.02.021.064.003.056.002.108l-.002.109q-.005.135-.019.271a1 1 0 0 1-.02.107.4.4 0 0 1-.038.095.3.3 0 0 1-.156.14.7.7 0 0 1-.263.062l-.096.001-.135-.001h-.068zm1.687-.72a.3.3 0 0 1 .119.044 1 1 0 0 1 .097.073.2.2 0 0 1 .059.089q.018.052.018.106t-.015.103a.2.2 0 0 1-.042.081.4.4 0 0 1-.08.073.24.24 0 0 1-.099.042 1 1 0 0 1-.106.019l-.107.016-.103.015q-.053.008-.103.018a1 1 0 0 1-.194.023l-.194.003h-.016l-.015-.002q-.056-.011-.042-.07l.004-.017.002-.019.002-.212.001-.214v-.221l-.001-.221v-.045a.1.1 0 0 1 .008-.032q.007-.01.03-.013l.095-.017a1 1 0 0 1 .096-.01q.049 0 .098-.004l.097-.006.048-.003h.049l.112.005q.057.002.113.009a.6.6 0 0 1 .13.032.16.16 0 0 1 .065.046q.027.03.036.066a.2.2 0 0 1 .002.075.18.18 0 0 1-.074.106l-.042.032-.024.015zm-.605-.076.016.002.008-.001.387-.068a.2.2 0 0 0 .04-.013.2.2 0 0 0 .036-.018q.015-.01.017-.021 0-.013-.01-.018l-.022-.007a1 1 0 0 0-.173-.029q-.088-.008-.177-.013l-.085-.001-.025.003-.024.006zm.697.397-.012-.039q-.007-.017-.015-.026l-.019-.019-.028-.016-.027-.011-.029-.009-.154-.027a.6.6 0 0 0-.156-.008.3.3 0 0 1-.05.002l-.048.003-.073.008a.2.2 0 0 0-.073.02 1 1 0 0 0-.015.161l-.004.164a.4.4 0 0 0 .116-.002q.1-.012.202-.034l.2-.043a.3.3 0 0 0 .185-.124m1.092-.321a.3.3 0 0 1 .118.044 1 1 0 0 1 .097.073.2.2 0 0 1 .06.089q.018.052.018.106t-.015.103a.2.2 0 0 1-.042.081.5.5 0 0 1-.08.073.24.24 0 0 1-.099.042 1 1 0 0 1-.106.019l-.108.016-.103.015-.103.018a1 1 0 0 1-.193.023l-.195.003h-.015l-.015-.002q-.055-.011-.043-.07l.005-.017.001-.019.003-.212v-.435l-.001-.221v-.045a.1.1 0 0 1 .009-.032q.006-.01.029-.013l.095-.017a1 1 0 0 1 .097-.01q.049 0 .097-.004l.097-.006.049-.003h.048l.113.005q.057.002.112.009a.5.5 0 0 1 .13.032q.039.015.066.046a.16.16 0 0 1 .002.212.2.2 0 0 1-.039.035l-.042.032-.024.015zm-.605-.076.015.002q.006.001.008-.001l.179-.03q.089-.014.179-.032l.03-.006a.2.2 0 0 0 .039-.013.2.2 0 0 0 .036-.018q.015-.01.017-.021 0-.013-.01-.018l-.021-.007a1 1 0 0 0-.174-.029l-.176-.013-.086-.001-.025.003-.024.006.006.089zm.697.397-.013-.039a.1.1 0 0 0-.014-.026l-.019-.019a.3.3 0 0 0-.084-.036l-.155-.027a.6.6 0 0 0-.156-.008.3.3 0 0 1-.05.002l-.048.003-.073.008a.2.2 0 0 0-.073.02 2 2 0 0 0-.015.161l-.004.164a.4.4 0 0 0 .116-.002q.101-.012.202-.034l.2-.043a.3.3 0 0 0 .104-.044.3.3 0 0 0 .082-.08m.589.073-.011.014-.008.011a1 1 0 0 1-.081.122q-.044.056-.086.116-.022.033-.06.029-.021-.004-.043-.003a.2.2 0 0 1-.044-.002l-.024-.003-.023-.007a.05.05 0 0 1-.031-.03.06.06 0 0 1-.003-.043.5.5 0 0 1 .08-.175q.029-.04.053-.081l.053-.083.019-.03.031-.049.036-.053.033-.042.081-.1.083-.101a4 4 0 0 1 .167-.19.4.4 0 0 1 .076-.065.17.17 0 0 1 .095-.03l.033-.001.032.001a.16.16 0 0 1 .137.063l.071.087a.4.4 0 0 1 .056.097l.019.033.024.034q.065.093.109.196a.5.5 0 0 0 .043.082l.066.121q.03.06.054.125l.03.062.032.061.017.028.016.028q.015.028.005.049t-.041.027a.5.5 0 0 1-.169.002.1.1 0 0 1-.058-.045l-.022-.042-.022-.04-.032-.062-.028-.062q-.013-.033-.036-.047a.1.1 0 0 0-.059-.013l-.322.005q-.16.001-.321.005h-.012zm.176-.244.017.007.014.003h.414l-.011-.03-.01-.026-.034-.058-.032-.061-.027-.049a.1.1 0 0 0-.024-.025.1.1 0 0 0-.033-.011l-.057-.006-.013.003a.5.5 0 0 0-.116.115q-.046.065-.088.138m1.954.195a7 7 0 0 0 .217-.241q.107-.121.2-.255a.1.1 0 0 1 .044-.039.1.1 0 0 1 .054-.007.5.5 0 0 0 .105.007q.052 0 .104.014a.2.2 0 0 1 .075.038.13.13 0 0 1 .039.071l.01.031.009.033a.6.6 0 0 0 .045.131q.03.062.066.122a1 1 0 0 1 .048.084l.02-.017a.04.04 0 0 0 .013-.013l.204-.309.117-.175.115-.177a.1.1 0 0 1 .034-.039.06.06 0 0 1 .043-.015q.013 0 .031.005l.038.01a.4.4 0 0 1 .068.025q.07.03.031.087a2 2 0 0 0-.077.129 1 1 0 0 1-.084.126 3 3 0 0 0-.105.147l-.101.151-.026.036-.027.037-.106.147-.026.036-.026.037a.13.13 0 0 1-.098.055l-.018.001-.017.003-.108.008q-.047.001-.076-.045a3 3 0 0 1-.108-.208l-.098-.213a.1.1 0 0 0-.027-.037q-.015-.014-.046-.011-.078.074-.147.17l-.04.052-.042.052-.144.175a.1.1 0 0 1-.051.038.2.2 0 0 1-.06.006l-.084-.007-.086-.004a.12.12 0 0 1-.112-.073l-.033-.073-.031-.073-.01-.027-.01-.028-.11-.277-.11-.278q-.022-.053-.007-.082.016-.028.083-.025l.025.004.025.002q.05 0 .078.027a.2.2 0 0 1 .046.068l.015.038.015.038.06.152q.029.078.068.151l.051.099zm1.767.049-.011.014-.008.011a1 1 0 0 1-.081.122q-.045.056-.086.116-.024.033-.06.029-.022-.004-.043-.003a.2.2 0 0 1-.044-.002l-.025-.003-.023-.007a.05.05 0 0 1-.03-.03.06.06 0 0 1-.003-.043.6.6 0 0 1 .079-.175l.054-.081.053-.083.019-.03.031-.049.036-.053.032-.042.082-.1.083-.101a4 4 0 0 1 .166-.19.5.5 0 0 1 .077-.065q.046-.03.094-.03l.034-.001.031.001a.16.16 0 0 1 .138.063l.071.087a.4.4 0 0 1 .056.097l.043.067q.064.093.109.196a.5.5 0 0 0 .043.082l.066.121q.03.06.054.125l.03.062.032.061.017.028.016.028q.014.028.005.049t-.041.027a.5.5 0 0 1-.17.002.1.1 0 0 1-.057-.045l-.022-.042-.022-.04-.032-.062-.028-.062a.1.1 0 0 0-.036-.047.1.1 0 0 0-.059-.013l-.322.005-.321.005h-.012zm.175-.244.018.007.014.003h.414l-.011-.03-.01-.026a4 4 0 0 1-.093-.168.1.1 0 0 0-.024-.025.1.1 0 0 0-.033-.011l-.058-.006-.012.003a.5.5 0 0 0-.116.115q-.045.065-.089.138m2.022.133a3 3 0 0 0-.168-.024 1.4 1.4 0 0 0-.268-.004l-.089.004a.4.4 0 0 1-.09-.012l-.06-.014-.06-.012a.3.3 0 0 1-.114-.044.5.5 0 0 1-.092-.076.16.16 0 0 1-.048-.101.2.2 0 0 1 .019-.116.3.3 0 0 1 .1-.108.3.3 0 0 1 .068-.034l.073-.021q.112-.022.225-.037l.225-.033a1 1 0 0 1 .161-.014l.161-.003q.044-.002.059.013.015.016.02.058a.4.4 0 0 1 0 .071.04.04 0 0 1-.014.031.05.05 0 0 1-.032.014q-.138 0-.272.021l-.268.042a1 1 0 0 0-.091.022l-.104.034-.013.007-.014.014-.022.024.019.008.02.007.085.007a.3.3 0 0 0 .085-.003l.044-.006.044-.001q.051 0 .102.006l.101.011q.072.006.139.016l.138.017a.3.3 0 0 1 .154.059.25.25 0 0 1 .082.094.3.3 0 0 1 .021.121.2.2 0 0 1-.017.08.14.14 0 0 1-.053.058q-.09.06-.187.101a.5.5 0 0 1-.209.042q-.079 0-.156.004l-.157.007q-.16.004-.32.004l-.086-.001h-.041l-.018.001-.02-.001a.13.13 0 0 1-.079-.036.12.12 0 0 1-.033-.08.2.2 0 0 1 .001-.043l.008-.044a.1.1 0 0 1 .029-.051.1.1 0 0 1 .055-.014l.135.005a6 6 0 0 0 .25.005l.151-.006.153-.004a1 1 0 0 0 .111-.012q.054-.011.108-.026l.017-.009zm1.774-.004a.6.6 0 0 0-.193-.013 1 1 0 0 1-.197-.005l-.039-.004-.042.001a5 5 0 0 0-.255.016 1 1 0 0 0-.006.099 2 2 0 0 0 .01.127l.006.062.002.015.001.015q.006.095-.087.105l-.057.005-.057.003q-.052.003-.06-.053l-.003-.036v-.037l-.007-.245a7 7 0 0 1-.001-.246 3 3 0 0 1 .008-.171l.014-.171q.001-.014.005-.028l.006-.029a.1.1 0 0 1 .015-.027q.009-.008.031-.009l.057-.003.057.001q.04 0 .044.038l.014.331q.015.004.026.004l.024.004h.008q.053-.006.107-.008l.108-.001q.114 0 .228.005.114.006.231.009l.009-.025.007-.026.007-.126a.5.5 0 0 0-.012-.127l-.002-.016-.001-.016q0-.045.038-.057l.075-.02.076-.016q.022-.005.038.008.015.014.019.036l.003.033v.034q.003.177-.007.354a21 21 0 0 0-.023.425l-.008.07q-.005.046-.052.052a1 1 0 0 1-.099.008.06.06 0 0 1-.038-.011.05.05 0 0 1-.02-.035l-.003-.029v-.028l-.002-.102v-.102l-.001-.017zm.64-.332v.07q.013.013.024.011l.025-.001a1.6 1.6 0 0 1 .307-.007h.016q.056.007.074.026.018.018.012.074l-.005.045-.005.047q-.008.038-.041.044a.4.4 0 0 1-.074.011l-.07.006-.07.006-.141.009-.012.002-.013.004a.14.14 0 0 0-.016.064l.003.069.023.006.023.001.112-.004.113-.006.09-.008a1 1 0 0 0 .091-.016l.064-.007.066-.005q.039-.002.078-.001l.078.001.062-.004a.2.2 0 0 0 .062-.014q.028-.01.046.005.017.017.014.048l-.004.07.002.071q.006.054-.05.063l-.016.002-.016.001-.192.007-.191.006h-.025l-.024-.002-.05-.004-.049-.002q-.07 0-.137.008l-.135.014-.073.006a.6.6 0 0 1-.136.001l-.063-.008q-.038-.007-.05-.019-.01-.012-.014-.051l-.006-.058-.005-.058-.012-.277-.009-.277a1 1 0 0 1 .006-.099q.007-.051.01-.099a.1.1 0 0 1 .023-.057.08.08 0 0 1 .055-.026l.025-.004.024-.004.141-.001h.141l.074.003.219.006.22.007.053.004.053.008a.1.1 0 0 1 .047.024q.015.018.012.044a1 1 0 0 1-.029.156.03.03 0 0 1-.018.025.1.1 0 0 1-.032.006l-.029-.003q-.014-.001-.028-.005a.45.45 0 0 0-.189-.001.6.6 0 0 1-.14.019l-.14.003a.6.6 0 0 0-.179.025m2.035.278a16 16 0 0 1 .148.335l.015.031.012.033a.06.06 0 0 1-.005.049.05.05 0 0 1-.041.024l-.082.004h-.081a.06.06 0 0 1-.034-.01.1.1 0 0 1-.022-.026l-.023-.048-.021-.05-.064-.151-.066-.152a.3.3 0 0 0-.065-.005l-.063.007-.061.009q-.031.004-.063.004h-.121l-.128.004-.01.034a.1.1 0 0 0-.006.033l-.004.127-.003.128q0 .056-.022.077-.021.023-.08.024l-.041-.002a.2.2 0 0 1-.039-.01.1.1 0 0 1-.031-.022.1.1 0 0 1-.016-.039l-.009-.068-.005-.068-.001-.064v-.585l.002-.04a.2.2 0 0 0 .001-.04q-.003-.042.016-.067.02-.024.08-.032l.227-.03q.112-.017.226-.027a1 1 0 0 1 .217.002q.108.013.216.04.033.01.068.017l.068.018.098.035q.044.017.08.044a.2.2 0 0 1 .059.065.3.3 0 0 1 .039.099.17.17 0 0 1-.005.102.15.15 0 0 1-.073.073 1 1 0 0 1-.14.065 2 2 0 0 1-.147.053m.031-.276a.15.15 0 0 0-.065-.041.2.2 0 0 0-.065-.007q-.091.006-.178 0a3 3 0 0 1-.177-.014 1 1 0 0 0-.106-.005h-.106a.2.2 0 0 0-.05.006.14.14 0 0 0-.05.023v.022l-.002.023.003.024a.1.1 0 0 0 .015.024l.058-.003.06-.004.111-.009a2 2 0 0 1 .239-.011l.127-.001.087-.005a.5.5 0 0 0 .099-.022m.723-.002v.07q.013.013.025.011l.025-.001a1.6 1.6 0 0 1 .307-.007h.016q.055.007.073.026.019.018.012.074l-.005.045-.004.047q-.008.038-.041.044a.4.4 0 0 1-.075.011q-.034.004-.07.006l-.069.006-.141.009-.012.002-.014.004a.2.2 0 0 0-.015.064l.003.069q.01.004.023.006l.023.001.111-.004.114-.006.09-.008a1 1 0 0 0 .09-.016l.064-.007.066-.005q.04-.002.078-.001l.079.001.062-.004a.2.2 0 0 0 .061-.014q.029-.01.046.005.018.017.015.048l-.004.07.002.071q.005.054-.051.063l-.015.002-.016.001-.193.007-.191.006h-.024l-.025-.002-.05-.004-.048-.002q-.07 0-.137.008a6 6 0 0 1-.281.024 1 1 0 0 1-.127-.011q-.038-.007-.049-.019-.01-.012-.014-.051l-.007-.058-.004-.058-.012-.277-.009-.277a1 1 0 0 1 .006-.099q.007-.051.01-.099a.1.1 0 0 1 .023-.057.07.07 0 0 1 .055-.026l.024-.004q.012-.004.025-.004l.141-.001h.141l.074.003.219.006.22.007.053.004.053.008a.1.1 0 0 1 .047.024q.015.018.012.044a1 1 0 0 1-.029.156.03.03 0 0 1-.018.025.1.1 0 0 1-.033.006l-.028-.003-.029-.005a.44.44 0 0 0-.188-.001.6.6 0 0 1-.14.019l-.141.003a.6.6 0 0 0-.179.025m2.139.372a.1.1 0 0 0 .036-.034l.023-.035.359-.521.357-.521.02-.029.024-.029q.013-.026.042-.02l.043.011.043.011q.042.018.025.059l-.011.021-.011.018-.361.673-.36.675a.14.14 0 0 1-.131.078q-.087-.003-.169.007l-.391.04q-.03.006-.046-.005a.1.1 0 0 1-.029-.039l-.02-.042-.022-.042-.053-.115-.053-.116-.212-.46q-.028-.058-.052-.117a3 3 0 0 0-.067-.147q-.015-.033-.011-.047.002-.015.027-.037l.038-.028.04-.027a.1.1 0 0 1 .039-.014q.02 0 .039.019.017.014.031.032l.028.035q.066.089.117.188.05.099.106.196a5 5 0 0 0 .192.326l.019.02q.017 0 .011-.02l-.009-.087-.01-.085-.059-.436-.058-.433-.013-.095-.012-.095a.14.14 0 0 1 .003-.054q.005-.015.028-.015.019 0 .047.008.042.014.083.025.042.011.087.025a.08.08 0 0 1 .058.072q.017.117.037.232a55 55 0 0 1 .158.974m.532-.54q-.05.07-.096.131-.046.062-.09.125a1 1 0 0 1-.066.092.6.6 0 0 0-.06.098.3.3 0 0 1-.032.055l-.037.056-.01.013q-.004.007-.01.012l-.039.045a.2.2 0 0 1-.046.049.2.2 0 0 1-.062.026q-.04.014-.059-.031-.002-.002-.017-.043l-.027-.089-.028-.092-.017-.054a.3.3 0 0 1-.008-.05l-.009-.056q-.005-.036-.007-.07l-.007-.066-.007-.049-.007-.046-.009-.107a1 1 0 0 0-.018-.102.2.2 0 0 1-.007-.047l-.005-.048-.009-.067-.01-.064a1 1 0 0 1-.025-.225.1.1 0 0 0-.006-.031q-.022-.022-.055-.014l.008.057.005.055q.014.147.023.293a8 8 0 0 0 .029.375 4 4 0 0 1 .07.496l.001.011v.045l-.063.023a.2.2 0 0 1-.068.016l-.049-.078-.048-.078-.053-.098-.056-.095-.05-.08-.011-.02-.011-.019-.09-.156q-.005-.012-.011-.02l-.011-.019-.044-.076-.012-.02-.011-.019-.043-.079a.3.3 0 0 0-.054-.074l-.02.023q-.003.005.003.013l.011.02.011.017a.8.8 0 0 1 .103.192 3 3 0 0 0 .154.362q.046.095.087.191l.08.191.019.039h.006l.014.002h.005l.025-.004.025-.004q.168-.042.349-.036l.039-.002a.2.2 0 0 1 .041.002.1.1 0 0 0 .109-.056l.021-.036.018-.036.084-.142.039-.073a4 4 0 0 0 .11-.21l.101-.213zm-6.382-30.385c.098.074.168.13.241.183.57.411 1.116.855 1.478 1.465.194.328.265.73.463 1.056.197.323.519.569.719.89.331.53.368 1.122.206 1.721-.18.666-.379 1.326-.546 1.995-.052.209-.028.437-.043.734.175-.114.286-.184.394-.258.45-.305.899-.206 1.122.287.404.896.437 2.211-.469 2.982-.312.266-.662.486-.989.734a.38.38 0 0 0-.133.199c-.355 1.532-1.146 2.877-1.852 4.255-.147.288-.446.497-.666.751-.19.22-.367.451-.597.736l1.052.249c.067.016.15.001.202.036.404.269.848.24 1.3.203.39-.032.757.032 1.039.348.042.046.12.066.186.082 1.302.308 2.015 1.128 2.275 2.44.333 1.678.528 3.371.682 5.071.059.644.126 1.287.177 1.931.019.246.003.494.003.755h-.579v-2.026l-.114-.013c-.021.119-.058.238-.059.358-.006.533-.003 1.067-.003 1.647h-2.002l-.082-.339-.043.005-.028.376c-.213 0-.428.018-.638-.004-.327-.033-.399-.211-.208-.474.019-.026.029-.059.043-.09-.402-.136-.46-.076-.523.573l-1.022-.065c.038-.438.082-.855.11-1.272.114-1.72.239-3.44.327-5.162.057-1.11.054-2.223.089-3.335.007-.213-.076-.327-.273-.369-.715-.155-1.43-.311-2.149-.454-.072-.015-.183.037-.241.094a61 61 0 0 0-1.242 1.242.6.6 0 0 0-.131.272c-.154.565-.293 1.134-.45 1.699-.254.907-.69 1.7-1.419 2.324-.425.363-.789.799-1.223 1.151-.309.25-.678.437-1.042.606-.129.06-.346.035-.479-.034-1.49-.787-2.663-1.938-3.586-3.325-.595-.894-1.083-1.859-1.618-2.793-.021-.037-.057-.081-.052-.116.054-.406-.27-.608-.469-.873-.365-.49-.741-.971-1.129-1.476l-1.743.865c-.255.127-.505.265-.766.378-.165.071-.229.168-.221.351.062 1.3.122 2.601.17 3.901.049 1.326.08 2.653.125 3.98q.031 1.021.088 2.041c.014.252-.069.376-.347.348-.049-.189-.052-.433-.359-.418-.035.001-.081-.099-.109-.158-.035-.071-.057-.148-.134-.208v.708c-.354.16-.361.157-.514-.249-.189.151-.431.012-.475-.288-.058-.392-.098-.787-.147-1.18-.041-.341-.082-.682-.167-1.028-.011.033-.031.065-.031.098-.023.813.018 1.62.165 2.421.024.126.103.279-.11.335-.207.053-.243-.096-.291-.238-.019-.055-.05-.106-.086-.178-.066.037-.121.071-.179.1-.22.112-.343.052-.379-.188-.061-.399-.12-.799-.237-1.204-.008.082-.024.164-.024.246.003.345.02.689.013 1.034-.006.395-.034.411-.475.398-.005-.088-.013-.177-.013-.268 0-1.414-.079-2.834.026-4.241.079-1.054.016-2.1.069-3.148q.012-.285.062-.565c.138-.754.503-1.353 1.215-1.696 1.013-.49 2.031-.969 3.043-1.462.533-.26 1.057-.539 1.599-.816-.032-.083-.051-.147-.081-.205a5.2 5.2 0 0 1-.57-2.572c.014-.406.012-.406-.381-.384-.992.053-1.837-.449-2.242-1.361a2 2 0 0 1-.157-.67c-.047-.723-.063-1.449.119-2.16.153-.597.434-1.118.888-1.548.225-.213.478-.249.759-.242.058.001.116-.007.161-.009-.084-.468-.212-.919-.236-1.377-.031-.573.027-1.151.039-1.728.003-.184-.036-.369-.027-.552.02-.391.011-.793.102-1.169.216-.89.797-1.553 1.468-2.141.629-.551 1.266-1.093 1.901-1.637a1 1 0 0 1 .166-.122c1.027-.529 2.047-1.072 3.084-1.578a8.1 8.1 0 0 1 2.67-.77c.257-.028.492-.014.712.144.147.105.316.177.47.272.149.09.279.163.474.077.156-.067.332-.04.425.173.048.111.156.207.258.28.504.359 1.023.692 1.605.918q.277.108.539.251c.138.073.227.046.289-.091l.578-1.295c.074-.166.13-.342.226-.493a.6.6 0 0 1 .284-.229c.088-.029.242-.005.301.058.057.06.064.211.034.302-.13.383-.281.759-.424 1.138a.5.5 0 0 0-.03.278c.082-.047.17-.086.244-.142.413-.309.849-.566 1.375-.609.094-.008.276.05.277.083.005.13-.002.309-.084.387-.287.271-.607.508-.915.758a.4.4 0 0 0-.139.181c.219 0 .439-.02.655.005.254.03.508.083.75.159.082.027.194.165.182.234-.016.094-.12.211-.214.248-.36.142-.732.255-1.097.382-.062.022-.118.061-.215.111zM72.787 23.687c-.017.059-.029.082-.029.105.006.923-.001 1.846.025 2.769.023.788.183 1.532.721 2.164.289.34.541.718.766 1.103.752 1.284 1.992 1.826 3.329 2.212.335.097.698.109 1.05.125.878.039 1.767.146 2.635.062.91-.087 1.801-.363 2.701-.558a.42.42 0 0 0 .342-.31c.053-.189.193-.236.383-.221.092.007.22-.03.28-.095a85 85 0 0 0 1.616-1.782c.222-.251.465-.504.61-.799.543-1.106 1.049-2.229 1.566-3.347.038-.08.053-.171.101-.331-.133.07-.208.091-.257.138-.657.631-1.489.817-2.347.977-.72.135-1.266-.079-1.709-.633a1.2 1.2 0 0 0-.183-.182c-.156-.122-.306-.256-.477-.352-.814-.456-1.331-1.135-1.521-2.045-.066-.313-.048-.643-.074-1.037l-2.217.241c.026.31.127.589.055.81-.26.79-.533 1.59-1.277 2.09-.193.13-.386.259-.587.377-1.861 1.088-3.849.495-4.958-.781-.186-.213-.347-.447-.542-.7zm-.263-6.522-.172 3.131c.23-.297.382-.554.592-.748.32-.298.691-.542 1.022-.829a1.74 1.74 0 0 1 1.03-.428c.531-.037 1.066.012 1.6 0 .842-.02 1.505.342 2.098.905.535.509.793 1.159 1.018 1.832.066.2.142.262.366.204.683-.179 1.37-.348 2.09-.292.06.005.16-.103.189-.179.221-.57.419-1.149.65-1.715a.64.64 0 0 1 .31-.303 6.1 6.1 0 0 1 2.159-.479c1.274-.06 2.477.143 3.488 1.004.027.022.069.025.138.048-.069-.396-.125-.762-.203-1.122-.022-.1-.096-.231-.181-.268-.77-.341-1.411-.866-2.017-1.428-.253-.234-.491-.523-.629-.834-.344-.779-.628-1.585-.937-2.379-.026-.067-.066-.129-.111-.216-.092.077-.162.126-.22.186-.355.376-.716.746-1.059 1.133-.495.557-1.002 1.095-1.686 1.428l-2.323 1.13c-.768.374-1.57.605-2.433.605-.3 0-.601.053-.901.084-1.303.131-2.601.213-3.879-.469zm1.784 2.266c-.058.023-.183.04-.26.111-.248.227-.499.456-.707.718-.14.175-.295.404-.297.611-.007.617-.007 1.248.111 1.849.153.785.689 1.33 1.373 1.729.622.362 1.317.506 2.003.664.189.043.42.002.606-.067.525-.193.985-.488 1.317-.957.369-.524.591-1.102.731-1.725.099-.436.08-.842-.155-1.22a11 11 0 0 0-.672-.978c-.729-.932-1.703-1.366-2.877-1.384-.342-.006-.589.136-.716.446-.08.193-.186.281-.456.203zm14.483 3.421h-.031v-.439a8.1 8.1 0 0 0-.505-2.652c-.073-.201-.187-.33-.405-.385a11 11 0 0 1-1.14-.335c-.602-.225-1.211-.18-1.824-.1a.56.56 0 0 0-.295.139c-.517.501-.975 1.049-1.279 1.709-.473 1.029-.305 2.112.544 2.854.5.437 1.099.762 1.666 1.119.295.186.637.224.975.146.519-.12 1.033-.267 1.551-.395.454-.111.698-.364.738-.833.024-.273.005-.551.005-.826zm-12.129 9.467-.038.061c.698.816 1.382 1.646 2.101 2.444.395.437.882.774 1.45.963.105.035.273.032.352-.03 1.055-.828 1.977-1.769 2.482-3.046.026-.067.04-.138.077-.267-1.1.295-2.164.362-3.246.319-1.077-.042-2.153-.028-3.176-.443zm-4.849-10.904c-.099-.344-.226-.685-.543-.92-.163-.122-.302-.127-.458.018-.312.29-.515.644-.636 1.046-.228.756-.242 1.532-.143 2.304.096.745.628 1.277 1.364 1.445.423.097.828-.226.801-.658-.05-.773-.12-1.545-.172-2.318-.01-.155-.075-.224-.219-.22-.273.008-.549.005-.82.039-.199.025-.295-.07-.352-.224-.061-.164.049-.244.186-.278.322-.081.646-.152.993-.233zm9.5-11.212c-.137 0-.288-.04-.407.006-.924.352-1.843.719-2.762 1.085-.057.023-.14.078-.143.122-.015.259-.205.336-.397.422-1.057.475-1.981 1.143-2.818 1.937-.042.04-.073.091-.109.136 2.041-1.549 4.412-2.477 6.635-3.709zm8.484 13.376.078.071c.208-.207.427-.404.623-.623.61-.682.432-1.819.19-2.325-.094-.197-.252-.235-.425-.106-.279.211-.384.523-.518.894.243-.056.418-.132.589-.124.14.006.353.078.397.18.077.177-.066.32-.257.374q-.236.067-.474.125c-.158.04-.227.105-.175.291.114.412.147.831-.028 1.243m-12.726-8.273c1.701-.88 3.453-1.666 4.972-2.852-1.838.639-3.504 1.577-4.972 2.852m5.719-1.571-.057-.07-.46.357c-.463.355-.906.743-1.397 1.055-.492.313-1.038.541-1.552.823-.337.183-.658.394-.985.593l.045.071c1.663-.638 3.205-1.467 4.406-2.828zm-2.776-3.783-.027-.106c-.213.039-.486.012-.626.135-.163.144-.305.171-.493.178a2 2 0 0 0-.43.082c-.82.232-1.482.759-2.198 1.185-.005.003.002.028.007.073zm-1.697 3.64a13.9 13.9 0 0 0-3.587 2.863c.249-.109.488-.239.685-.415.519-.465 1.003-.969 1.532-1.421.434-.369.912-.687 1.37-1.027m9.714 2.575.07-.065-1.24-1.674-.109.066c.215.451.41.913.652 1.35.123.221.362.329.627.323m-5.783-4.441c.336-.152.653-.281.952-.442.062-.033.062-.184.09-.28-.115-.018-.243-.077-.342-.046-.169.055-.314.18-.478.251-.209.091-.28.235-.222.517m7.542 23.292c.058-.837.211-1.672.098-2.512l-.098-.001zm-.28-18.842c.054.241.069.501.171.72.127.274.073.488-.069.723-.057.093-.062.216-.091.325.45-.368.44-1.391-.011-1.768m-5.166-4.662c-.186-.089-.275-.136-.367-.175-.15-.064-.228.007-.258.151-.048.237-.094.475-.149.756zM67.523 34.077l.322-1.753c-.345.542-.375 1.143-.322 1.753m16.958-22.479-.035.04c.018.024.034.05.056.069.311.276.315.31.098.658-.076.122-.14.252-.209.378l.074.045.624-.734zM70.175 36.68l.091-.004-.098-2.041-.075.003zm18.259-19.59.062-.048-.209-.553-.355.282zM69.191 38.958l.097.005-.082-1.504h-.014zm.384-7.718c-.383-.031-.537.051-.656.349.243-.086.491-.082.656-.349m19.292-14.977c.044-.468-.08-.65-.386-.594zm-15.979.416.041.108c.112-.028.291-.023.324-.09.07-.144-.041-.253-.194-.317zm-5.083 16.009-.309 1.682"/><path d="M78.699 31.585c-1.017.015-2.036 0-3.027-.264-.208-.055-.393-.193-.593-.284-.131-.059-.277-.091-.406-.155a.46.46 0 0 1-.202-.189c-.015-.034.071-.157.132-.178.183-.064.221-.156.157-.337-.023-.065.024-.183.077-.243.188-.215.46-.228.72-.282 1.431-.299 2.867-.579 4.286-.925 1.635-.398 3.289-.559 4.963-.572.274-.002.551.079.823.137.149.033.203.14.181.3-.042.311-.053.627-.11.936-.019.105-.117.247-.212.28a613 613 0 0 1-4.936 1.719 1.1 1.1 0 0 1-.341.053c-.504.005-1.008.002-1.512.002zm3.828-1.183.009-.084c-.144-.072-.285-.199-.433-.207-1.164-.068-2.195.291-3.098 1.025-.003.002.001.014.006.063 1.223-.052 2.363-.456 3.516-.797m-.559-1.55-.037-.068c-.363.058-.728.11-1.088.179-.099.019-.267.093-.267.139.002.114.055.267.141.328.11.079.286.139.409.109.384-.094.65-.355.841-.688zM80 29.178c-.296.064-.572.132-.852.183-.146.027-.256.092-.184.238.052.107.175.239.277.249.242.024.676-.372.759-.67m-2.767.603c.327.257.628.355.977.204.184-.079.243-.2.153-.407zm-.987.775c.253.049.457.059.639.13.242.094.421.013.593-.108-.22-.12-.434-.243-.653-.354-.047-.024-.133-.033-.172-.006-.132.093-.25.205-.407.338m6.427-1.799c.094.236.223.344.444.336.292-.012.531-.154.625-.393-.034-.004-.065-.013-.096-.011zm1.731-.112.12.462c.16-.162.282-.285.405-.407l-.045-.055zm-5.733-2.519c0 .155-.011.311.003.465.018.217.162.315.337.192.299-.213.588-.182.907-.082.179.057.372.074.559.104.376.058.731.043 1.058-.205.23-.175.498-.286.775-.046.151-.144.239-.281.137-.484-.032-.062-.039-.204-.015-.215a.63.63 0 0 1 .325-.068c.064.009.168.115.166.175-.007.366-.057.727-.33 1.008-.11.112-.223.161-.354.009-.138-.159-.32-.169-.497-.071-.209.114-.413.242-.616.368-.135.084-.25.072-.411.029a9 9 0 0 0-1.33-.248c-.14-.016-.313.092-.442.184-.336.239-.54.173-.595-.233a3 3 0 0 1-.03-.716c.009-.086.168-.156.259-.233zm2.178-2.884c-.004-.05-.027-.111-.005-.146.04-.064.097-.136.163-.157.032-.01.134.081.143.136q.163.99.297 1.982c.008.058-.064.174-.116.185-.162.035-.33.002-.365-.194-.033-.186-.03-.379-.041-.569q-.036-.618-.069-1.238h-.007zm-6.012 1.079c.129-.233.322-.252.528-.243.19.009.38.029.569.018.064-.004.124-.086.185-.132-.075-.051-.148-.142-.225-.145-.213-.009-.427.032-.641.032-.564 0-.909-.295-1.015-.852-.037-.195-.062-.393-.108-.585-.077-.314.035-.542.277-.736.329-.265.713-.384 1.122-.414.287-.021.578-.003.866.007.385.014.601.259.655.601.061.387.069.787.058 1.18a.51.51 0 0 1-.354.491c-.086.032-.158.184-.177.292-.12.689-.114.691-.802.683-.319-.004-.646.029-.938-.197m1.786-1.65c-.031-.221-.059-.441-.097-.661-.031-.181-.125-.304-.328-.3-.28.007-.563-.013-.837.03-.592.093-.855.579-.659 1.129.107.301.306.489.615.475.322-.015.644-.091.962-.159.269-.058.38-.239.344-.515zm8.513 1.628c.498.173.923.333 1.392.178.061-.021.195.012.209.051.024.072.014.188-.032.246-.164.207-.406.327-.656.283a8.6 8.6 0 0 1-1.309-.342c-.099-.034-.179-.252-.186-.39-.009-.15-.061-.216-.176-.284-.506-.298-.795-.73-.82-1.329a.7.7 0 0 1 .193-.538c.17-.187.415-.359.266-.683-.012-.028.072-.122.13-.156.294-.176.619-.233.955-.189q.59.075 1.175.183c.47.088.794.595.679 1.07a22 22 0 0 1-.366 1.312c-.027.084-.13.172-.217.203-.327.116-.661.208-.993.309l-.244.078zm.2-.588c.122-.028.34-.074.554-.132.059-.016.138-.061.155-.11.124-.363.278-.725.338-1.101.055-.348-.057-.451-.399-.58-.147-.055-.298-.098-.445-.152-.446-.167-.793-.012-1.066.341a2.7 2.7 0 0 0-.304.508.46.46 0 0 0-.037.309c.19.594.473.901 1.204.917"/><path d="m75.66 22.706-.251-.258c.096-.077.183-.187.291-.215.049-.013.195.136.197.214.002.073-.13.148-.237.258zm9.874-.269c-.001.244-.092.321-.25.308-.132-.01-.26-.028-.254-.221.008-.217.178-.227.31-.228.077 0 .154.111.193.141z"/></g><path d="M6.084 9.579c.011.199-.012.386.011.572.012.222 0 .211.21.234.362.035.736-.012 1.098 0 .081.934.023 1.879.023 2.813.012.899-.012 1.798 0 2.696 0 .257-.117.969.14 1.074.117.035.315-.023.444-.023.198-.012.397.011.595 0 .292-.012.268-.047.28-.315v-.689c-.012-.42-.012-.852-.012-1.272 0-.817-.035-1.634-.011-2.452.011-.326-.012-.665-.024-1.003 0-.187-.011-.386-.011-.572.011-.199-.012-.257.186-.327.176-.058.432-.012.619-.012.245-.011.409.035.479-.21.058-.257.046-.712.023-.98-.035-.222-.012-.175-.233-.199-.105-.012-.199-.023-.304-.023-.198-.012-.397-.012-.595-.012-.876 0-1.739.012-2.615.035-.163 0-.28-.023-.338.094-.059.105.023.455.035.571m4.855 7.039c.047.362.246.42.584.455.21.024.549.047.735-.058.281-.152.187-.572.176-.829-.012-.327 0-.654.011-.98 0-.257-.093-.724.035-.958.105-.186.502-.175.712-.186.222-.012.771-.082.934.058.175.175.105.572.105.794l-.012 1.109c0 .21-.081.7.059.875.128.164.56.14.747.152.245.023.467-.023.618-.245 0-.782-.093-1.553-.093-2.323 0-.782.023-1.564.047-2.335.011-.712.035-1.412.035-2.112 0-.28.093-.724-.012-.992-.058-.164-.198-.199-.35-.199-.14 0-.292.035-.42.035-.304.012-.537.023-.561.374-.011.256.035.525.035.793 0 .666-.011 1.354-.058 2.02-.023.292-.012.642-.327.747-.233.07-.548.023-.805.046-.245.024-.56.094-.677-.186-.094-.234-.07-.607-.07-.864 0-.7.011-1.389.093-2.101.035-.315.094-.677-.268-.794a1.1 1.1 0 0 0-.397-.058c-.199 0-.409.035-.56.093-.351.152-.211.42-.234.724-.023.303.012.584.012.887.023.677-.047 1.354-.035 2.031.011.689.035 1.354-.024 2.043-.058.642-.105 1.342-.035 1.984m5.942.338c.175 0 .432.036.665.036.152 0 .292-.012.397-.071.315-.175.198-.665.187-.957-.012-.828-.035-1.669-.059-2.498-.023-.887 0-1.774 0-2.661.012-.42 0-.84.024-1.261.035-.385.07-.653-.386-.665-.233 0-.828-.023-.933.222-.047.128.023.408.035.549v.607c0 .723-.012 1.47-.059 2.206-.046.817.024 1.645-.011 2.474-.024.362-.012.724 0 1.086.011.233-.07.782.14.933m3.408-3.898c.584.397 2.556 1.307 1.658 2.299a.85.85 0 0 1-.619.281.93.93 0 0 1-.63-.269c-.222-.21-.257-.56-.467-.56-.199 0-.946.607-.981.735-.035.175.175.572.269.7.397.572 1.085.981 1.786.981.817 0 1.657-.514 2.042-1.237.526-.981.199-2.136-.548-2.883-.386-.374-.806-.572-1.261-.829-.409-.234-.805-.514-.934-.981-.128-.455.024-.922.514-1.003.56-.094.805.361 1.074.758.268-.116.712-.198.933-.385.152-.128.129-.21.059-.42-.269-.689-.946-1.424-1.728-1.424-.992 0-1.832.572-2.147 1.529-.339 1.039.081 2.089.98 2.708m6.28-3.502c.432 2.23.887 4.459 1.354 6.677.082.397.047.747.513.759.234 0 .584.058.794-.024.129-.21.094-.455.14-.689l.14-.77c.047-.292.105-.572.152-.864.047-.221.035-.653.233-.793.164.361.199.828.281 1.214l.245 1.237c.035.152.035.49.14.607.093.093.28.07.385.07.14 0 .304.035.455.035.187 0 .339-.047.385-.245.339-1.658.596-3.362.911-5.031.14-.724.268-1.447.42-2.171.093-.409.21-.584-.257-.595-.128-.012-.338-.047-.525-.047-.152 0-.292.023-.362.128-.175.234-.152.794-.198 1.086-.059.35-.129.7-.187 1.05-.07.374-.152.747-.21 1.121-.035.175-.058.875-.187.969-.117.081-.093.081-.163-.094-.059-.116-.07-.28-.094-.42-.081-.338-.14-.677-.21-1.015-.14-.701-.292-1.413-.443-2.113-.035-.164-.035-.455-.117-.584-.093-.14-.14-.128-.327-.128-.257 0-.245.012-.338.222-.059.14-.082.315-.105.467a40 40 0 0 1-.374 2.042c-.082.385-.14.782-.222 1.179-.023.14-.046.607-.21.502-.152-.093-.187-.84-.222-1.015l-.21-1.074c-.081-.409-.175-.817-.256-1.214-.059-.292-.059-.724-.211-.969-.128-.199-.583-.187-.817-.175-.467.035-.373.303-.303.665m7.575.432c0 1.097 0 2.194.012 3.303.012 1.203-.082 2.44.058 3.642q.35.07.736.07c.373 0 .747-.047 1.109-.07.245-.023.478-.035.712-.035.303 0 .595.023.898.07.082.012.187.035.28.035.117 0 .234-.035.292-.14.105-.187.012-.642.012-.875 0-.654-.233-.817-.899-.701-.338.059-.63-.035-.969-.046-.151 0-.502.07-.607-.059-.081-.093-.023-.572-.011-.688 0-.175 0-.491.093-.654.094-.14.257-.175.444-.175.303 0 .677.093.887-.059.292-.21.257-1.003.198-1.318-.058-.257-.257-.304-.525-.327-.28-.035-.56.046-.84.046-.479 0-.456-.525-.456-.91.012-.234 0-.514.257-.607.234-.093.63-.047.887-.058.175-.012.455.035.724.035.233 0 .443-.024.549-.152.221-.234.21-1.132-.024-1.307a.8.8 0 0 0-.455-.117c-.35 0-.759.105-1.016.117-.572.023-1.143-.035-1.715-.024-.269 0-.572-.07-.654.245-.058.222.023.537.023.759m5.183-.549v1.284c-.012 1.635-.024 3.257-.012 4.891 0 .21.012.432.012.642 0 .152-.059.455 0 .584.082.152.245.105.432.105h.537c.361 0 .77.047 1.167.047.385 0 .759-.047 1.085-.234.561-.327 1.086-.91 1.133-1.587.046-.759-.082-1.565-.689-2.066.187-.362.42-.619.525-1.028.105-.431.222-.852.152-1.295-.093-.677-.537-1.413-1.202-1.658-.712-.268-1.553-.175-2.311-.21-.105-.012-.281-.035-.432-.035a.6.6 0 0 0-.257.047c-.199.117-.14.28-.14.513m2.474 4.331c.351.233.491.91.339 1.296-.14.338-.572.513-.946.513q-.157 0-.28-.035c-.362-.502-.21-1.926.479-1.926.117 0 .257.047.408.152m-.887-3.303c.105-.105.315-.082.444-.082.42-.012.864.058.992.549.128.49-.152 1.167-.654 1.283-.221.047-.455.047-.653-.058-.315-.163-.304-.408-.304-.735-.011-.222-.035-.782.175-.957m4.786 2.591c.584.397 2.556 1.307 1.657 2.299a.84.84 0 0 1-.618.281.93.93 0 0 1-.63-.269c-.222-.21-.257-.56-.467-.56-.199 0-.946.607-.981.735-.035.175.175.572.269.7.396.572 1.085.981 1.786.981.817 0 1.657-.514 2.042-1.237.525-.981.199-2.136-.548-2.883-.386-.374-.806-.572-1.261-.829-.409-.234-.805-.514-.934-.981-.128-.455.023-.922.514-1.003.56-.094.805.361 1.074.758.268-.116.712-.198.933-.385.152-.128.129-.21.059-.42-.269-.689-.946-1.424-1.728-1.424-.992 0-1.832.572-2.147 1.529-.339 1.039.081 2.089.98 2.708m4.459 3.898c.175 0 .432.036.665.036.152 0 .292-.012.397-.071.315-.175.199-.665.187-.957-.012-.828-.035-1.669-.059-2.498-.023-.887 0-1.774 0-2.661.012-.42 0-.84.024-1.261.035-.385.07-.653-.385-.665-.234 0-.829-.023-.934.222-.047.128.023.408.035.549v.607c0 .723-.012 1.47-.059 2.206-.046.817.024 1.645-.011 2.474-.024.362-.012.724 0 1.086.011.233-.07.782.14.933m2.089-7.377c.012.199-.011.386.012.572.012.222 0 .211.21.234.362.035.735-.012 1.097 0 .082.934.024 1.879.024 2.813.011.899-.012 1.798 0 2.696 0 .257-.117.969.14 1.074.116.035.315-.023.443-.023.199-.012.397.011.595 0 .292-.012.269-.047.281-.315v-.689c-.012-.42-.012-.852-.012-1.272 0-.817-.035-1.634-.012-2.452.012-.326-.011-.665-.023-1.003 0-.187-.012-.386-.012-.572.012-.199-.011-.257.187-.327.175-.058.432-.012.619-.012.245-.011.408.035.478-.21.059-.257.047-.712.024-.98-.035-.222-.012-.175-.234-.199-.105-.012-.198-.023-.303-.023-.199-.012-.397-.012-.596-.012-.875 0-1.739.012-2.614.035-.164 0-.28-.023-.339.094-.058.105.024.455.035.571m4.891.409c0 1.097 0 2.194.012 3.303.011 1.203-.082 2.44.058 3.642q.35.07.735.07c.374 0 .747-.047 1.109-.07a8 8 0 0 1 .712-.035c.304 0 .596.023.899.07.082.012.187.035.28.035.117 0 .234-.035.292-.14.105-.187.012-.642.012-.875 0-.654-.234-.817-.899-.701-.339.059-.63-.035-.969-.046-.152 0-.502.07-.607-.059-.082-.093-.023-.572-.012-.688 0-.175 0-.491.094-.654.093-.14.257-.175.443-.175.304 0 .677.093.888-.059.291-.21.256-1.003.198-1.318-.058-.257-.257-.304-.525-.327-.28-.035-.561.046-.841.046-.478 0-.455-.525-.455-.91.012-.234 0-.514.257-.607.233-.093.63-.047.887-.058.175-.012.455.035.724.035.233 0 .443-.024.548-.152.222-.234.21-1.132-.023-1.307a.8.8 0 0 0-.455-.117c-.351 0-.759.105-1.016.117-.572.023-1.144-.035-1.716-.024-.268 0-.572-.07-.653.245-.059.222.023.537.023.759M6.996 24.507c.075.523.274 1.071.411 1.581.261.983 1.394 1.755 2.402 1.792.535.012.921-.249 1.294-.585.324-.286.735-.535.847-.996.062-.336-.125-.311-.386-.473-.174-.112-.324-.348-.548-.373-.261-.037-.336.237-.46.411-.137.174-.287.311-.511.373-.248-.062-.547-.087-.771-.249-.224-.174-.398-.473-.535-.722-.249-.497-.237-1.045-.312-1.58-.074-.56.075-1.344.249-1.88.175-.51.523-1.082 1.121-1.082.373 0 .684.224.821.585.05.137.05.361.187.46.049.037.099.037.161.037.162 0 .349-.074.473-.099.573-.125.71-.311.461-.859-.461-1.045-.996-1.78-2.253-1.78-1.419 0-2.016.971-2.414 2.191-.175.51-.237 1.033-.262 1.568-.037.56-.062 1.133.025 1.68m6.223 1.668c.349.983 1.332 1.63 2.315 1.63.386 0 .784-.099 1.133-.311 1.232-.771 1.418-2.551 1.394-3.883.087-1.581-.399-3.92-2.116-4.48a1.5 1.5 0 0 0-.473-.063c-.585 0-.971.087-1.407.523-.497.498-.821 1.207-1.008 1.879-.41 1.506-.361 3.224.162 4.705m.859-2.489a5.8 5.8 0 0 1 .299-1.967c.149-.46.361-1.095.871-1.269.597-.199.921.473 1.145.871.286.498.386 1.17.398 1.73.025.622.025 1.245-.087 1.854-.112.573-.448 1.469-1.145 1.469-.485 0-.909-.436-1.083-.846a4.3 4.3 0 0 1-.398-1.842m5.227-3.41v1.207c0 .734.013 1.468.013 2.203 0 .834.012 1.655 0 2.489-.013.299-.05.61-.05.908 0 .399 0 .648.448.66.249 0 .734.087.958-.025.187-.099.137-.124.125-.348 0-.175-.038-.336-.038-.523 0-.622.05-1.245.038-1.867 0-.236-.075-1.12.099-1.12.05 0 .125.075.224.261.311.585.461 1.208.685 1.817.124.349.236.71.373 1.046.075.187.125.46.249.622.1.125.349.199.597.199.324 0 .648-.112.673-.348.037-.336-.05-.747-.05-1.095 0-.299-.013-.598-.013-.896 0-.685.05-1.345.05-2.029v-2.216c.013-.609.112-1.269.013-1.891-.05-.274-.137-.249-.399-.249-.124-.013-.423-.05-.659-.05-.137 0-.249.012-.299.05-.174.124-.075.498-.062.672.012.373 0 .734-.013 1.108-.012.336-.025.672-.012 1.02 0 .125.124.809-.038.884-.224.099-.721-1.282-.784-1.456-.186-.573-.435-1.133-.634-1.693-.125-.336-.162-.423-.511-.461a2.5 2.5 0 0 0-.908.013c-.174.224-.062.834-.075 1.108m5.315-.424c.012.212-.013.411.012.61.012.237 0 .224.224.249.386.038.784-.012 1.17 0 .087.996.025 2.004.025 3 .012.958-.013 1.916 0 2.875 0 .273-.125 1.033.149 1.145.125.037.336-.025.473-.025.212-.013.423.012.635 0 .311-.013.286-.05.299-.336v-.735c-.013-.448-.013-.908-.013-1.356 0-.871-.037-1.743-.012-2.614.012-.348-.013-.709-.025-1.07 0-.199-.013-.411-.013-.61.013-.212-.012-.274.199-.348.187-.063.461-.013.66-.013.261-.012.436.037.51-.224.063-.274.05-.759.025-1.045-.037-.237-.012-.187-.249-.212-.112-.012-.211-.025-.323-.025-.212-.012-.423-.012-.635-.012-.933 0-1.854.012-2.788.037-.174 0-.299-.025-.361.1-.062.112.025.485.038.609m4.356 7.68c.049.261-.013.124.161.199.15.062.411 0 .573 0 .498-.013.523-.038.61-.536.074-.448.186-.659.672-.684.286-.025.834.012 1.033.261s.05.747.386.909c.099.05.361.087.585.087.149 0 .286-.025.361-.05.336-.137.037-.846-.038-1.145-.099-.386-.187-.784-.286-1.17-.087-.386-.174-.734-.237-1.132a20 20 0 0 0-.224-1.22c-.211-.896-.323-1.817-.51-2.713-.062-.286-.087-1.021-.361-1.145-.112-.062-.286-.087-.448-.087-.274 0-.56.049-.747.099-.572 1.755-.684 3.684-1.045 5.501-.149.809-.336 1.618-.448 2.427-.025.125-.062.274-.037.399m1.929-3.46c.037-.237.099-1.158.298-1.257.262.174.274 1.12.324 1.431.012.124.162.56.087.684-.075.137-.336.112-.473.112-.211.013-.336.063-.386-.161-.037-.187.112-.623.15-.809m3.709 3.646c.186 0 .46.038.709.038.162 0 .311-.013.423-.075.336-.187.212-.71.199-1.021-.012-.883-.037-1.779-.062-2.663-.025-.946 0-1.892 0-2.838.012-.448 0-.896.025-1.344.037-.411.075-.697-.411-.709-.249 0-.883-.025-.995.236-.05.137.024.436.037.585v.647c0 .772-.013 1.568-.062 2.353-.05.871.025 1.754-.013 2.638-.025.386-.012.772 0 1.158.013.248-.074.833.15.995m2.538-7.442v1.207c0 .734.013 1.468.013 2.203 0 .834.012 1.655 0 2.489-.013.299-.05.61-.05.908 0 .399 0 .648.448.66.249 0 .735.087.959-.025.186-.099.136-.124.124-.348 0-.175-.037-.336-.037-.523 0-.622.049-1.245.037-1.867 0-.236-.075-1.12.1-1.12.049 0 .124.075.224.261.311.585.46 1.208.684 1.817.125.349.237.71.373 1.046.075.187.125.46.249.622.1.125.349.199.598.199.323 0 .647-.112.672-.348.037-.336-.05-.747-.05-1.095 0-.299-.012-.598-.012-.896 0-.685.049-1.345.049-2.029v-2.216c.013-.609.112-1.269.013-1.891-.05-.274-.137-.249-.398-.249-.125-.013-.424-.05-.66-.05-.137 0-.249.012-.299.05-.174.124-.074.498-.062.672.012.373 0 .734-.012 1.108-.013.336-.025.672-.013 1.02 0 .125.125.809-.037.884-.224.099-.722-1.282-.784-1.456-.187-.573-.436-1.133-.635-1.693-.124-.336-.162-.423-.51-.461a2.5 2.5 0 0 0-.909.013c-.174.224-.062.834-.075 1.108m6.721 3.285c.623.423 2.726 1.394 1.768 2.452a.9.9 0 0 1-.66.299 1 1 0 0 1-.672-.286c-.237-.224-.274-.598-.498-.598-.212 0-1.008.647-1.045.784-.038.187.186.61.286.747.423.61 1.157 1.045 1.904 1.045.871 0 1.767-.547 2.178-1.319.56-1.045.212-2.277-.585-3.074-.411-.398-.859-.61-1.344-.884-.436-.248-.859-.547-.996-1.045-.137-.485.025-.983.548-1.07.597-.1.859.385 1.145.809.286-.125.759-.212.996-.411.161-.137.136-.224.062-.448-.286-.734-1.008-1.519-1.842-1.519-1.058 0-1.954.61-2.29 1.631-.361 1.108.087 2.228 1.045 2.887"/><path d="M51.005 20.276v1.207c0 .734.012 1.468.012 2.203 0 .834.013 1.655 0 2.489-.012.299-.05.61-.05.908 0 .399 0 .648.448.66.249 0 .735.087.959-.025.186-.099.137-.124.124-.348 0-.175-.037-.336-.037-.523 0-.622.05-1.245.037-1.867 0-.236-.074-1.12.1-1.12.05 0 .124.075.224.261.311.585.46 1.208.684 1.817.125.349.237.71.374 1.046.074.187.124.46.249.622.099.125.348.199.597.199.324 0 .647-.112.672-.348.037-.336-.05-.747-.05-1.095 0-.299-.012-.598-.012-.896 0-.685.05-1.345.05-2.029v-2.216c.012-.609.112-1.269.012-1.891-.05-.274-.137-.249-.398-.249-.125-.013-.423-.05-.66-.05-.137 0-.249.012-.298.05-.175.124-.075.498-.063.672.013.373 0 .734-.012 1.108-.013.336-.025.672-.013 1.02 0 .125.125.809-.037.884-.224.099-.722-1.282-.784-1.456-.187-.573-.436-1.133-.635-1.693-.124-.336-.162-.423-.51-.461a2.5 2.5 0 0 0-.909.013c-.174.224-.062.834-.074 1.108m6.024 5.899c.348.983 1.331 1.63 2.314 1.63.386 0 .785-.099 1.133-.311 1.232-.771 1.419-2.551 1.394-3.883.087-1.581-.398-3.92-2.116-4.48a1.5 1.5 0 0 0-.473-.063c-.585 0-.971.087-1.406.523-.498.498-.822 1.207-1.008 1.879-.411 1.506-.361 3.224.162 4.705m.858-2.489a5.9 5.9 0 0 1 .299-1.967c.149-.46.361-1.095.871-1.269.598-.199.921.473 1.145.871.286.498.386 1.17.398 1.73.025.622.025 1.245-.087 1.854-.112.573-.448 1.469-1.145 1.469-.485 0-.908-.436-1.082-.846a4.3 4.3 0 0 1-.399-1.842m-50.6 7.486v2.073c-.018 2.64-.037 5.26-.018 7.899 0 .339.018.697.018 1.037 0 .245-.094.735 0 .942.132.245.396.17.698.17h.867c.584 0 1.244.075 1.885.075.622 0 1.225-.075 1.753-.377.905-.528 1.753-1.47 1.829-2.563.075-1.226-.132-2.526-1.112-3.337.301-.584.678-.999.848-1.659.17-.697.358-1.376.245-2.092-.151-1.094-.867-2.281-1.942-2.677-1.15-.434-2.507-.283-3.732-.34-.17-.018-.453-.056-.698-.056a1 1 0 0 0-.414.075c-.321.189-.227.453-.227.83m3.997 6.993c.565.377.792 1.471.546 2.093-.226.547-.923.829-1.526.829q-.255 0-.453-.056c-.584-.811-.339-3.111.773-3.111.189 0 .415.076.66.245m-1.433-5.334c.17-.17.509-.132.716-.132.679-.019 1.395.094 1.603.886.207.791-.245 1.885-1.056 2.073-.358.076-.735.076-1.056-.094-.508-.264-.49-.66-.49-1.188-.018-.358-.056-1.263.283-1.545m6.617 10.481c.283 0 .697.056 1.074.056.245 0 .472-.019.641-.113.509-.283.321-1.074.302-1.546-.019-1.338-.057-2.695-.094-4.034-.038-1.432 0-2.865 0-4.298.018-.678 0-1.357.037-2.036.057-.622.113-1.055-.622-1.074-.377 0-1.338-.038-1.508.358-.075.207.038.66.057.886v.98c0 1.169-.019 2.376-.095 3.563-.075 1.32.038 2.658-.018 3.997-.038.584-.019 1.168 0 1.753.018.377-.114 1.263.226 1.508m4.128-3.808c.528 1.866 1.64 3.676 3.733 3.996 1.677.264 3.581-1.3 3.676-2.959.037-.999.094-1.999.15-2.998.019-.49 0-.999-.019-1.489-.018-.188.057-.49-.113-.622-.094-.075-.603-.019-.716-.019-.565-.019-1.131.038-1.697.057-.49.019-.886-.113-.904.471 0 .302-.113 1.018 0 1.301.188.414.678.245 1.093.377.057.528.019 1.093.057 1.621.018.434-.038.754-.302 1.112-.264.377-.603.547-.943.547-.509 0-1.018-.377-1.263-.943-.471-.98-.49-2.111-.527-3.186-.038-.999 0-2.054.358-3.016.245-.641.735-1.357 1.395-1.357.169 0 .358.057.546.151.113.075.283.188.377.264.057.056.359.415.377.415.302.056.773-.604.905-.792.113-.17.509-.603.49-.83-.037-.358-1.036-1.036-1.319-1.168a4 4 0 0 0-2.375-.34c-1.735.245-2.734 2.394-3.035 3.902-.34 1.772-.434 3.752.056 5.505m14.478-2.488c.942.64 4.128 2.111 2.676 3.713-.282.302-.64.453-.999.453-.358 0-.716-.151-1.018-.434-.358-.339-.414-.905-.754-.905-.32 0-1.527.98-1.583 1.188-.057.283.283.923.433 1.131.641.924 1.754 1.583 2.885 1.583 1.319 0 2.676-.829 3.299-1.998.848-1.583.32-3.45-.886-4.656-.623-.603-1.301-.924-2.036-1.338-.66-.377-1.301-.83-1.508-1.584-.208-.735.037-1.489.829-1.621.905-.151 1.301.584 1.734 1.225.434-.188 1.15-.32 1.508-.622.245-.207.208-.339.095-.679-.434-1.112-1.527-2.299-2.79-2.299-1.603 0-2.96.923-3.469 2.469-.547 1.678.132 3.374 1.584 4.374m6.956 5.749c.075.584.395.679.942.735.339.038.886.076 1.188-.094.452-.245.301-.924.283-1.338-.019-.528 0-1.056.018-1.584 0-.415-.15-1.169.057-1.546.17-.301.811-.282 1.15-.301.358-.019 1.244-.132 1.508.094.283.283.17.924.17 1.282l-.019 1.791c0 .339-.132 1.131.094 1.414.207.263.905.226 1.206.245.396.037.754-.038 1-.396 0-1.263-.151-2.507-.151-3.752 0-1.263.037-2.526.075-3.77.019-1.15.057-2.281.057-3.412 0-.452.15-1.169-.019-1.602-.094-.264-.321-.321-.566-.321-.226 0-.471.057-.678.057-.49.019-.867.038-.905.603-.019.415.056.848.056 1.282 0 1.075-.018 2.187-.094 3.261-.038.472-.019 1.037-.528 1.207-.377.113-.886.037-1.3.075-.396.038-.905.151-1.094-.302-.151-.377-.113-.98-.113-1.394 0-1.132.019-2.244.151-3.394.056-.509.151-1.093-.434-1.282-.188-.075-.414-.094-.641-.094-.32 0-.659.057-.904.151-.566.245-.34.679-.377 1.169-.038.49.018.942.018 1.432.038 1.094-.075 2.187-.056 3.281.019 1.112.056 2.186-.038 3.298-.094 1.037-.169 2.168-.056 3.205m9.595.547c.282 0 .697.056 1.074.056.245 0 .471-.019.641-.113.509-.283.321-1.074.302-1.546-.019-1.338-.057-2.695-.094-4.034-.038-1.432 0-2.865 0-4.298.018-.678 0-1.357.037-2.036.057-.622.113-1.055-.622-1.074-.377 0-1.338-.038-1.508.358-.075.207.038.66.057.886v.98c0 1.169-.019 2.376-.095 3.563-.075 1.32.038 2.658-.018 3.997-.038.584-.019 1.168 0 1.753.018.377-.114 1.263.226 1.508m3.374-11.914c.019.32-.019.622.019.924.019.358 0 .339.339.377.585.056 1.188-.019 1.772 0 .132 1.508.038 3.035.038 4.543.019 1.451-.019 2.903 0 4.354 0 .415-.189 1.565.226 1.735.189.056.509-.038.716-.038.321-.019.641.019.962 0 .471-.019.433-.075.452-.509v-1.112c-.019-.679-.019-1.376-.019-2.055 0-1.32-.056-2.639-.018-3.959.018-.528-.019-1.074-.038-1.621 0-.302-.019-.622-.019-.924.019-.32-.019-.414.302-.527.282-.095.697-.019.999-.019.396-.019.659.056.773-.34.094-.414.075-1.149.037-1.583-.056-.358-.019-.283-.377-.321-.169-.018-.32-.037-.49-.037-.32-.019-.641-.019-.961-.019-1.414 0-2.809.019-4.223.056-.264 0-.452-.037-.547.151-.094.17.038.735.057.924" fill="#ad0000"/><path d="M34.479.066h1.504v.323h-1.504zm4.927 0h1.504v.323h-1.504zm-2.464 0h1.504v.323h-1.504zm4.928 0h1.504v.323H41.87zm2.463 0h1.504v.323h-1.504zm2.464 0h1.504v.323h-1.504zm2.464 0h1.504v.323h-1.504zm-49.274 0h1.504v.323H-.013zm4.928 0h1.504v.323H4.915zm-2.464 0h1.504v.323H2.451zm4.927 0h1.504v.323H7.378zm2.464 0h1.504v.323H9.842zm2.464 0h1.504v.323h-1.504zm2.463 0h1.504v.323h-1.504zm2.464 0h1.504v.323h-1.504zm4.927 0h1.504v.323H22.16zm-2.463 0h1.504v.323h-1.504zm4.927 0h1.504v.323h-1.504zm2.464 0h1.504v.323h-1.504zm2.463 0h1.504v.323h-1.504zm2.464 0h1.504v.323h-1.504zm19.709 0h1.504v.323h-1.504zm4.928 0h1.504v.323h-1.504zm-2.464 0h1.504v.323h-1.504zm4.927 0h1.504v.323h-1.504zm2.464 0h1.504v.323h-1.504zm2.464 0h1.504v.323h-1.504zm2.463 0h1.504v.323h-1.504zm2.464 0h1.504v.323H68.97zm4.927 0h1.504v.323h-1.504zm-2.463 0h1.504v.323h-1.504zm4.927 0h1.504v.323h-1.504zm2.464 0h1.504v.323h-1.504zm2.463 0h1.504v.323h-1.504zm2.464 0h1.504v.323h-1.504zm4.927 0h1.504v.323h-1.504zm-2.463 0h1.504v.323h-1.504zm4.927 0h1.504v.323h-1.504zm2.464 0h1.504v.323h-1.504zm2.463 0h1.504v.323H96.07zm2.464 0h1.504v.323h-1.504zM34.453 52.111h1.504v.323h-1.504zm4.928 0h1.504v.323h-1.504zm-2.464 0h1.504v.323h-1.504zm4.927 0h1.504v.323h-1.504zm2.464 0h1.504v.323h-1.504zm2.464 0h1.504v.323h-1.504zm2.463 0h1.504v.323h-1.504zm-49.273 0h1.504v.323H-.038zm4.927 0h1.504v.323H4.889zm-2.463 0H3.93v.323H2.426zm4.927 0h1.504v.323H7.353zm2.464 0h1.504v.323H9.817zm2.463 0h1.504v.323H12.28zm2.464 0h1.504v.323h-1.504zm2.464 0h1.504v.323h-1.504zm4.927 0h1.504v.323h-1.504zm-2.464 0h1.504v.323h-1.504zm4.928 0h1.504v.323h-1.504zm2.463 0h1.504v.323h-1.504zm2.464 0h1.504v.323h-1.504zm2.464 0h1.504v.323H31.99zm19.709 0h1.504v.323h-1.504zm4.927 0h1.504v.323h-1.504zm-2.463 0h1.504v.323h-1.504zm4.927 0h1.504v.323H59.09zm2.464 0h1.504v.323h-1.504zm2.463 0h1.504v.323h-1.504zm2.464 0h1.504v.323h-1.504zm2.464 0h1.504v.323h-1.504zm4.927 0h1.504v.323h-1.504zm-2.464 0h1.504v.323h-1.504zm4.928 0h1.504v.323h-1.504zm2.463 0h1.504v.323h-1.504zm2.464 0h1.504v.323h-1.504zm2.464 0h1.504v.323h-1.504zm4.927 0h1.504v.323h-1.504zm-2.464 0h1.504v.323H86.19zm4.928 0h1.504v.323h-1.504zm2.463 0h1.504v.323h-1.504zm2.464 0h1.504v.323h-1.504zm2.464 0h1.504v.323h-1.504zm1.156-4.506h.322v1.504h-.322zm0 2.464h.322v1.504h-.322zm0-46.81h.322v1.504h-.322zm0-2.464h.322v1.504h-.322zm0 4.928h.322v1.504h-.322zm0 2.463h.322V9.69h-.322zm0 2.464h.322v1.504h-.322zm0 2.464h.322v1.504h-.322zm0 2.463h.322v1.504h-.322zm0 4.928h.322v1.504h-.322zm0-2.464h.322v1.504h-.322zm0 4.927h.322v1.504h-.322zm0 2.464h.322v1.504h-.322zm0 2.464h.322V29.4h-.322zm0 2.463h.322v1.504h-.322zm0 4.928h.322v1.504h-.322zm0-2.464h.322v1.504h-.322zm0 4.927h.322v1.504h-.322zm0 2.464h.322v1.504h-.322zm0 2.464h.322v1.504h-.322zm0 2.463h.322v1.504h-.322zM-.013 47.605H.31v1.504h-.323zm0 2.464H.31v1.504h-.323zm0-46.81H.31v1.504h-.323zm0-2.464H.31v1.504h-.323zm0 4.928H.31v1.504h-.323zm0 2.463H.31V9.69h-.323zm0 2.464H.31v1.504h-.323zm0 2.464H.31v1.504h-.323zm0 2.463H.31v1.504h-.323zm0 4.928H.31v1.504h-.323zm0-2.464H.31v1.504h-.323zm0 4.927H.31v1.504h-.323zm0 2.464H.31v1.504h-.323zm0 2.464H.31V29.4h-.323zm0 2.463H.31v1.504h-.323zm0 4.928H.31v1.504h-.323zm0-2.464H.31v1.504h-.323zm0 4.927H.31v1.504h-.323zm0 2.464H.31v1.504h-.323zm0 2.464H.31v1.504h-.323zm0 2.463H.31v1.504h-.323z" fill="#161718"/></svg>